{"asset":{"version":"2.0","generator":"oceanleo-asm-3d","extras":{"title":"分级回转柱塞组件 · 四节收径","description":"二十七件回转体全部共轴：底部五道对比材质的密封环压住最宽的一节，往上分四节收径，每一节内部是三到五级细收，节与节之间是一次直径突变，顶端收成一根锥形针。全件没有一处离轴的枝节。 全部构件共用一根竖轴：俯视是一组同心圆，正视是四次直径突变分出的四节，节内三到五级细收。","attribution":[{"text":"OceanLeo 第一方原创零件研究","licenseCode":"CC0","licenseUrl":"https://creativecommons.org/publicdomain/zero/1.0/"},{"text":"OceanLeo 程序化生成","licenseCode":"OCEANLEO-AIGEN","licenseUrl":"https://oceanleo.com/licenses/aigen"}]}},"scene":0,"scenes":[{"name":"model-axial-revolve-03","nodes":[27]}],"nodes":[{"name":"seal-ring-1","mesh":0},{"name":"seal-ring-2","mesh":1},{"name":"seal-ring-3","mesh":2},{"name":"seal-ring-4","mesh":3},{"name":"seal-ring-5","mesh":4},{"name":"stage-a-1","mesh":5},{"name":"stage-a-2","mesh":6},{"name":"stage-a-3","mesh":7},{"name":"stage-a-4","mesh":8},{"name":"stage-b-1","mesh":9},{"name":"stage-b-2","mesh":10},{"name":"stage-b-3","mesh":11},{"name":"stage-b-4","mesh":12},{"name":"stage-c-1","mesh":13},{"name":"stage-c-2","mesh":14},{"name":"stage-c-3","mesh":15},{"name":"stage-c-4","mesh":16},{"name":"stage-d-1","mesh":17},{"name":"stage-d-2","mesh":18},{"name":"stage-d-3","mesh":19},{"name":"stage-d-4","mesh":20},{"name":"stage-d-5","mesh":21},{"name":"stage-e-1","mesh":22},{"name":"stage-e-2","mesh":23},{"name":"stage-e-3","mesh":24},{"name":"stage-e-4","mesh":25},{"name":"tip-cone","mesh":26},{"name":"model-axial-revolve-03","children":[0,1,2,3,4,5,6,7,8,9,10,11,12,13,14,15,16,17,18,19,20,21,22,23,24,25,26]}],"meshes":[{"name":"最外一道密封环，整件的最大直径","primitives":[{"attributes":{"POSITION":0,"NORMAL":1,"TEXCOORD_0":2},"indices":3,"material":1,"mode":4}]},{"name":"第二道密封环","primitives":[{"attributes":{"POSITION":4,"NORMAL":5,"TEXCOORD_0":6},"indices":7,"material":1,"mode":4}]},{"name":"第三道密封环，最细的一道","primitives":[{"attributes":{"POSITION":8,"NORMAL":9,"TEXCOORD_0":10},"indices":11,"material":1,"mode":4}]},{"name":"座圈内侧的厚环","primitives":[{"attributes":{"POSITION":12,"NORMAL":13,"TEXCOORD_0":14},"indices":15,"material":1,"mode":4}]},{"name":"最内一道环，抵住第一节柱身","primitives":[{"attributes":{"POSITION":16,"NORMAL":17,"TEXCOORD_0":18},"indices":19,"material":1,"mode":4}]},{"name":"第一节底盘，承担底座","primitives":[{"attributes":{"POSITION":20,"NORMAL":21,"TEXCOORD_0":22},"indices":23,"material":0,"mode":4}]},{"name":"第一节第二级","primitives":[{"attributes":{"POSITION":24,"NORMAL":25,"TEXCOORD_0":26},"indices":27,"material":0,"mode":4}]},{"name":"第一节第三级","primitives":[{"attributes":{"POSITION":28,"NORMAL":29,"TEXCOORD_0":30},"indices":31,"material":0,"mode":4}]},{"name":"第一节顶级，收径前的薄肩","primitives":[{"attributes":{"POSITION":32,"NORMAL":33,"TEXCOORD_0":34},"indices":35,"material":0,"mode":4}]},{"name":"第二节起始级，一次直径突变","primitives":[{"attributes":{"POSITION":36,"NORMAL":37,"TEXCOORD_0":38},"indices":39,"material":0,"mode":4}]},{"name":"第二节第二级","primitives":[{"attributes":{"POSITION":40,"NORMAL":41,"TEXCOORD_0":42},"indices":43,"material":0,"mode":4}]},{"name":"第二节第三级","primitives":[{"attributes":{"POSITION":44,"NORMAL":45,"TEXCOORD_0":46},"indices":47,"material":0,"mode":4}]},{"name":"第二节顶级","primitives":[{"attributes":{"POSITION":48,"NORMAL":49,"TEXCOORD_0":50},"indices":51,"material":0,"mode":4}]},{"name":"第三节起始级，第二次直径突变","primitives":[{"attributes":{"POSITION":52,"NORMAL":53,"TEXCOORD_0":54},"indices":55,"material":0,"mode":4}]},{"name":"第三节第二级","primitives":[{"attributes":{"POSITION":56,"NORMAL":57,"TEXCOORD_0":58},"indices":59,"material":0,"mode":4}]},{"name":"第三节第三级","primitives":[{"attributes":{"POSITION":60,"NORMAL":61,"TEXCOORD_0":62},"indices":63,"material":0,"mode":4}]},{"name":"第三节顶级","primitives":[{"attributes":{"POSITION":64,"NORMAL":65,"TEXCOORD_0":66},"indices":67,"material":0,"mode":4}]},{"name":"第四节起始级，第三次直径突变","primitives":[{"attributes":{"POSITION":68,"NORMAL":69,"TEXCOORD_0":70},"indices":71,"material":0,"mode":4}]},{"name":"第四节第二级","primitives":[{"attributes":{"POSITION":72,"NORMAL":73,"TEXCOORD_0":74},"indices":75,"material":0,"mode":4}]},{"name":"第四节第三级","primitives":[{"attributes":{"POSITION":76,"NORMAL":77,"TEXCOORD_0":78},"indices":79,"material":0,"mode":4}]},{"name":"第四节第四级","primitives":[{"attributes":{"POSITION":80,"NORMAL":81,"TEXCOORD_0":82},"indices":83,"material":0,"mode":4}]},{"name":"第四节顶级","primitives":[{"attributes":{"POSITION":84,"NORMAL":85,"TEXCOORD_0":86},"indices":87,"material":0,"mode":4}]},{"name":"杆部起始级，第四次直径突变","primitives":[{"attributes":{"POSITION":88,"NORMAL":89,"TEXCOORD_0":90},"indices":91,"material":0,"mode":4}]},{"name":"杆部第二级","primitives":[{"attributes":{"POSITION":92,"NORMAL":93,"TEXCOORD_0":94},"indices":95,"material":0,"mode":4}]},{"name":"杆部第三级","primitives":[{"attributes":{"POSITION":96,"NORMAL":97,"TEXCOORD_0":98},"indices":99,"material":0,"mode":4}]},{"name":"杆部顶级，锥针的座","primitives":[{"attributes":{"POSITION":100,"NORMAL":101,"TEXCOORD_0":102},"indices":103,"material":0,"mode":4}]},{"name":"顶端锥针，整件唯一的非柱面回转体","primitives":[{"attributes":{"POSITION":104,"NORMAL":105,"TEXCOORD_0":106},"indices":107,"material":0,"mode":4}]}],"materials":[{"name":"vec.neutral","pbrMetallicRoughness":{"baseColorTexture":{"index":0,"texCoord":0},"baseColorFactor":[0.26225,0.30054,0.3467,1],"metallicFactor":0.2,"roughnessFactor":0.6},"doubleSided":false},{"name":"vec.accent","pbrMetallicRoughness":{"baseColorTexture":{"index":1,"texCoord":0},"baseColorFactor":[0.0137,0.15896,0.83077,1],"metallicFactor":0.2,"roughnessFactor":0.6},"doubleSided":false}],"textures":[{"source":0,"sampler":0},{"source":1,"sampler":0}],"images":[{"uri":"textures/vec.neutral.png","mimeType":"image/png","name":"vec.neutral"},{"uri":"textures/vec.accent.png","mimeType":"image/png","name":"vec.accent"}],"samplers":[{"magFilter":9729,"minFilter":9987,"wrapS":10497,"wrapT":10497}],"accessors":[{"bufferView":0,"componentType":5126,"count":153,"type":"VEC3","min":[-44,0,-44],"max":[44,6,44]},{"bufferView":1,"componentType":5126,"count":153,"type":"VEC3","min":[-1,-1,-1],"max":[1,1,1]},{"bufferView":2,"componentType":5126,"count":153,"type":"VEC2"},{"bufferView":3,"componentType":5125,"count":768,"type":"SCALAR"},{"bufferView":4,"componentType":5126,"count":153,"type":"VEC3","min":[-38,0,-38],"max":[38,5,38]},{"bufferView":5,"componentType":5126,"count":153,"type":"VEC3","min":[-1,-1,-1],"max":[1,1,1]},{"bufferView":6,"componentType":5126,"count":153,"type":"VEC2"},{"bufferView":7,"componentType":5125,"count":768,"type":"SCALAR"},{"bufferView":8,"componentType":5126,"count":153,"type":"VEC3","min":[-32,0,-32],"max":[32,4,32]},{"bufferView":9,"componentType":5126,"count":153,"type":"VEC3","min":[-1,-1,-1],"max":[1,1,1]},{"bufferView":10,"componentType":5126,"count":153,"type":"VEC2"},{"bufferView":11,"componentType":5125,"count":768,"type":"SCALAR"},{"bufferView":12,"componentType":5126,"count":153,"type":"VEC3","min":[-25,0,-25],"max":[25,8,25]},{"bufferView":13,"componentType":5126,"count":153,"type":"VEC3","min":[-1,-1,-1],"max":[1,1,1]},{"bufferView":14,"componentType":5126,"count":153,"type":"VEC2"},{"bufferView":15,"componentType":5125,"count":768,"type":"SCALAR"},{"bufferView":16,"componentType":5126,"count":153,"type":"VEC3","min":[-17,0,-17],"max":[17,7,17]},{"bufferView":17,"componentType":5126,"count":153,"type":"VEC3","min":[-1,-1,-1],"max":[1,1,1]},{"bufferView":18,"componentType":5126,"count":153,"type":"VEC2"},{"bufferView":19,"componentType":5125,"count":768,"type":"SCALAR"},{"bufferView":20,"componentType":5126,"count":70,"type":"VEC3","min":[-35,0,-35],"max":[35,10,35]},{"bufferView":21,"componentType":5126,"count":70,"type":"VEC3","min":[-1,-1,-1],"max":[1,1,1]},{"bufferView":22,"componentType":5126,"count":70,"type":"VEC2"},{"bufferView":23,"componentType":5125,"count":192,"type":"SCALAR"},{"bufferView":24,"componentType":5126,"count":70,"type":"VEC3","min":[-31,0,-31],"max":[31,16,31]},{"bufferView":25,"componentType":5126,"count":70,"type":"VEC3","min":[-1,-1,-1],"max":[1,1,1]},{"bufferView":26,"componentType":5126,"count":70,"type":"VEC2"},{"bufferView":27,"componentType":5125,"count":192,"type":"SCALAR"},{"bufferView":28,"componentType":5126,"count":70,"type":"VEC3","min":[-29,0,-29],"max":[29,20,29]},{"bufferView":29,"componentType":5126,"count":70,"type":"VEC3","min":[-1,-1,-1],"max":[1,1,1]},{"bufferView":30,"componentType":5126,"count":70,"type":"VEC2"},{"bufferView":31,"componentType":5125,"count":192,"type":"SCALAR"},{"bufferView":32,"componentType":5126,"count":70,"type":"VEC3","min":[-28.5,0,-28.5],"max":[28.5,23,28.5]},{"bufferView":33,"componentType":5126,"count":70,"type":"VEC3","min":[-1,-1,-1],"max":[1,1,1]},{"bufferView":34,"componentType":5126,"count":70,"type":"VEC2"},{"bufferView":35,"componentType":5125,"count":192,"type":"SCALAR"},{"bufferView":36,"componentType":5126,"count":70,"type":"VEC3","min":[-22,0,-22],"max":[22,28,22]},{"bufferView":37,"componentType":5126,"count":70,"type":"VEC3","min":[-1,-1,-1],"max":[1,1,1]},{"bufferView":38,"componentType":5126,"count":70,"type":"VEC2"},{"bufferView":39,"componentType":5125,"count":192,"type":"SCALAR"},{"bufferView":40,"componentType":5126,"count":70,"type":"VEC3","min":[-21.5,0,-21.5],"max":[21.5,31,21.5]},{"bufferView":41,"componentType":5126,"count":70,"type":"VEC3","min":[-1,-1,-1],"max":[1,1,1]},{"bufferView":42,"componentType":5126,"count":70,"type":"VEC2"},{"bufferView":43,"componentType":5125,"count":192,"type":"SCALAR"},{"bufferView":44,"componentType":5126,"count":70,"type":"VEC3","min":[-20.5,0,-20.5],"max":[20.5,34,20.5]},{"bufferView":45,"componentType":5126,"count":70,"type":"VEC3","min":[-1,-1,-1],"max":[1,1,1]},{"bufferView":46,"componentType":5126,"count":70,"type":"VEC2"},{"bufferView":47,"componentType":5125,"count":192,"type":"SCALAR"},{"bufferView":48,"componentType":5126,"count":70,"type":"VEC3","min":[-19.5,0,-19.5],"max":[19.5,37,19.5]},{"bufferView":49,"componentType":5126,"count":70,"type":"VEC3","min":[-1,-1,-1],"max":[1,1,1]},{"bufferView":50,"componentType":5126,"count":70,"type":"VEC2"},{"bufferView":51,"componentType":5125,"count":192,"type":"SCALAR"},{"bufferView":52,"componentType":5126,"count":70,"type":"VEC3","min":[-14,0,-14],"max":[14,46,14]},{"bufferView":53,"componentType":5126,"count":70,"type":"VEC3","min":[-1,-1,-1],"max":[1,1,1]},{"bufferView":54,"componentType":5126,"count":70,"type":"VEC2"},{"bufferView":55,"componentType":5125,"count":192,"type":"SCALAR"},{"bufferView":56,"componentType":5126,"count":70,"type":"VEC3","min":[-13.5,0,-13.5],"max":[13.5,49,13.5]},{"bufferView":57,"componentType":5126,"count":70,"type":"VEC3","min":[-1,-1,-1],"max":[1,1,1]},{"bufferView":58,"componentType":5126,"count":70,"type":"VEC2"},{"bufferView":59,"componentType":5125,"count":192,"type":"SCALAR"},{"bufferView":60,"componentType":5126,"count":70,"type":"VEC3","min":[-13,0,-13],"max":[13,52,13]},{"bufferView":61,"componentType":5126,"count":70,"type":"VEC3","min":[-1,-1,-1],"max":[1,1,1]},{"bufferView":62,"componentType":5126,"count":70,"type":"VEC2"},{"bufferView":63,"componentType":5125,"count":192,"type":"SCALAR"},{"bufferView":64,"componentType":5126,"count":70,"type":"VEC3","min":[-12.5,0,-12.5],"max":[12.5,56,12.5]},{"bufferView":65,"componentType":5126,"count":70,"type":"VEC3","min":[-1,-1,-1],"max":[1,1,1]},{"bufferView":66,"componentType":5126,"count":70,"type":"VEC2"},{"bufferView":67,"componentType":5125,"count":192,"type":"SCALAR"},{"bufferView":68,"componentType":5126,"count":70,"type":"VEC3","min":[-9,0,-9],"max":[9,64,9]},{"bufferView":69,"componentType":5126,"count":70,"type":"VEC3","min":[-1,-1,-1],"max":[1,1,1]},{"bufferView":70,"componentType":5126,"count":70,"type":"VEC2"},{"bufferView":71,"componentType":5125,"count":192,"type":"SCALAR"},{"bufferView":72,"componentType":5126,"count":70,"type":"VEC3","min":[-8.5,0,-8.5],"max":[8.5,67,8.5]},{"bufferView":73,"componentType":5126,"count":70,"type":"VEC3","min":[-1,-1,-1],"max":[1,1,1]},{"bufferView":74,"componentType":5126,"count":70,"type":"VEC2"},{"bufferView":75,"componentType":5125,"count":192,"type":"SCALAR"},{"bufferView":76,"componentType":5126,"count":70,"type":"VEC3","min":[-8,0,-8],"max":[8,70,8]},{"bufferView":77,"componentType":5126,"count":70,"type":"VEC3","min":[-1,-1,-1],"max":[1,1,1]},{"bufferView":78,"componentType":5126,"count":70,"type":"VEC2"},{"bufferView":79,"componentType":5125,"count":192,"type":"SCALAR"},{"bufferView":80,"componentType":5126,"count":70,"type":"VEC3","min":[-7.5,0,-7.5],"max":[7.5,73,7.5]},{"bufferView":81,"componentType":5126,"count":70,"type":"VEC3","min":[-1,-1,-1],"max":[1,1,1]},{"bufferView":82,"componentType":5126,"count":70,"type":"VEC2"},{"bufferView":83,"componentType":5125,"count":192,"type":"SCALAR"},{"bufferView":84,"componentType":5126,"count":70,"type":"VEC3","min":[-7,0,-7],"max":[7,76,7]},{"bufferView":85,"componentType":5126,"count":70,"type":"VEC3","min":[-1,-1,-1],"max":[1,1,1]},{"bufferView":86,"componentType":5126,"count":70,"type":"VEC2"},{"bufferView":87,"componentType":5125,"count":192,"type":"SCALAR"},{"bufferView":88,"componentType":5126,"count":70,"type":"VEC3","min":[-5.5,0,-5.5],"max":[5.5,84,5.5]},{"bufferView":89,"componentType":5126,"count":70,"type":"VEC3","min":[-1,-1,-1],"max":[1,1,1]},{"bufferView":90,"componentType":5126,"count":70,"type":"VEC2"},{"bufferView":91,"componentType":5125,"count":192,"type":"SCALAR"},{"bufferView":92,"componentType":5126,"count":70,"type":"VEC3","min":[-5,0,-5],"max":[5,87,5]},{"bufferView":93,"componentType":5126,"count":70,"type":"VEC3","min":[-1,-1,-1],"max":[1,1,1]},{"bufferView":94,"componentType":5126,"count":70,"type":"VEC2"},{"bufferView":95,"componentType":5125,"count":192,"type":"SCALAR"},{"bufferView":96,"componentType":5126,"count":70,"type":"VEC3","min":[-4.75,0,-4.75],"max":[4.75,90,4.75]},{"bufferView":97,"componentType":5126,"count":70,"type":"VEC3","min":[-1,-1,-1],"max":[1,1,1]},{"bufferView":98,"componentType":5126,"count":70,"type":"VEC2"},{"bufferView":99,"componentType":5125,"count":192,"type":"SCALAR"},{"bufferView":100,"componentType":5126,"count":70,"type":"VEC3","min":[-4.5,0,-4.5],"max":[4.5,94,4.5]},{"bufferView":101,"componentType":5126,"count":70,"type":"VEC3","min":[-1,-1,-1],"max":[1,1,1]},{"bufferView":102,"componentType":5126,"count":70,"type":"VEC2"},{"bufferView":103,"componentType":5125,"count":192,"type":"SCALAR"},{"bufferView":104,"componentType":5126,"count":52,"type":"VEC3","min":[-6,0,-6],"max":[6,108,6]},{"bufferView":105,"componentType":5126,"count":52,"type":"VEC3","min":[-1,-1,-1],"max":[1,0.5,1]},{"bufferView":106,"componentType":5126,"count":52,"type":"VEC2"},{"bufferView":107,"componentType":5125,"count":144,"type":"SCALAR"}],"bufferViews":[{"buffer":0,"byteOffset":0,"byteLength":1836,"target":34962},{"buffer":0,"byteOffset":1836,"byteLength":1836,"target":34962},{"buffer":0,"byteOffset":3672,"byteLength":1224,"target":34962},{"buffer":0,"byteOffset":4896,"byteLength":3072,"target":34963},{"buffer":0,"byteOffset":7968,"byteLength":1836,"target":34962},{"buffer":0,"byteOffset":9804,"byteLength":1836,"target":34962},{"buffer":0,"byteOffset":11640,"byteLength":1224,"target":34962},{"buffer":0,"byteOffset":12864,"byteLength":3072,"target":34963},{"buffer":0,"byteOffset":15936,"byteLength":1836,"target":34962},{"buffer":0,"byteOffset":17772,"byteLength":1836,"target":34962},{"buffer":0,"byteOffset":19608,"byteLength":1224,"target":34962},{"buffer":0,"byteOffset":20832,"byteLength":3072,"target":34963},{"buffer":0,"byteOffset":23904,"byteLength":1836,"target":34962},{"buffer":0,"byteOffset":25740,"byteLength":1836,"target":34962},{"buffer":0,"byteOffset":27576,"byteLength":1224,"target":34962},{"buffer":0,"byteOffset":28800,"byteLength":3072,"target":34963},{"buffer":0,"byteOffset":31872,"byteLength":1836,"target":34962},{"buffer":0,"byteOffset":33708,"byteLength":1836,"target":34962},{"buffer":0,"byteOffset":35544,"byteLength":1224,"target":34962},{"buffer":0,"byteOffset":36768,"byteLength":3072,"target":34963},{"buffer":0,"byteOffset":39840,"byteLength":840,"target":34962},{"buffer":0,"byteOffset":40680,"byteLength":840,"target":34962},{"buffer":0,"byteOffset":41520,"byteLength":560,"target":34962},{"buffer":0,"byteOffset":42080,"byteLength":768,"target":34963},{"buffer":0,"byteOffset":42848,"byteLength":840,"target":34962},{"buffer":0,"byteOffset":43688,"byteLength":840,"target":34962},{"buffer":0,"byteOffset":44528,"byteLength":560,"target":34962},{"buffer":0,"byteOffset":45088,"byteLength":768,"target":34963},{"buffer":0,"byteOffset":45856,"byteLength":840,"target":34962},{"buffer":0,"byteOffset":46696,"byteLength":840,"target":34962},{"buffer":0,"byteOffset":47536,"byteLength":560,"target":34962},{"buffer":0,"byteOffset":48096,"byteLength":768,"target":34963},{"buffer":0,"byteOffset":48864,"byteLength":840,"target":34962},{"buffer":0,"byteOffset":49704,"byteLength":840,"target":34962},{"buffer":0,"byteOffset":50544,"byteLength":560,"target":34962},{"buffer":0,"byteOffset":51104,"byteLength":768,"target":34963},{"buffer":0,"byteOffset":51872,"byteLength":840,"target":34962},{"buffer":0,"byteOffset":52712,"byteLength":840,"target":34962},{"buffer":0,"byteOffset":53552,"byteLength":560,"target":34962},{"buffer":0,"byteOffset":54112,"byteLength":768,"target":34963},{"buffer":0,"byteOffset":54880,"byteLength":840,"target":34962},{"buffer":0,"byteOffset":55720,"byteLength":840,"target":34962},{"buffer":0,"byteOffset":56560,"byteLength":560,"target":34962},{"buffer":0,"byteOffset":57120,"byteLength":768,"target":34963},{"buffer":0,"byteOffset":57888,"byteLength":840,"target":34962},{"buffer":0,"byteOffset":58728,"byteLength":840,"target":34962},{"buffer":0,"byteOffset":59568,"byteLength":560,"target":34962},{"buffer":0,"byteOffset":60128,"byteLength":768,"target":34963},{"buffer":0,"byteOffset":60896,"byteLength":840,"target":34962},{"buffer":0,"byteOffset":61736,"byteLength":840,"target":34962},{"buffer":0,"byteOffset":62576,"byteLength":560,"target":34962},{"buffer":0,"byteOffset":63136,"byteLength":768,"target":34963},{"buffer":0,"byteOffset":63904,"byteLength":840,"target":34962},{"buffer":0,"byteOffset":64744,"byteLength":840,"target":34962},{"buffer":0,"byteOffset":65584,"byteLength":560,"target":34962},{"buffer":0,"byteOffset":66144,"byteLength":768,"target":34963},{"buffer":0,"byteOffset":66912,"byteLength":840,"target":34962},{"buffer":0,"byteOffset":67752,"byteLength":840,"target":34962},{"buffer":0,"byteOffset":68592,"byteLength":560,"target":34962},{"buffer":0,"byteOffset":69152,"byteLength":768,"target":34963},{"buffer":0,"byteOffset":69920,"byteLength":840,"target":34962},{"buffer":0,"byteOffset":70760,"byteLength":840,"target":34962},{"buffer":0,"byteOffset":71600,"byteLength":560,"target":34962},{"buffer":0,"byteOffset":72160,"byteLength":768,"target":34963},{"buffer":0,"byteOffset":72928,"byteLength":840,"target":34962},{"buffer":0,"byteOffset":73768,"byteLength":840,"target":34962},{"buffer":0,"byteOffset":74608,"byteLength":560,"target":34962},{"buffer":0,"byteOffset":75168,"byteLength":768,"target":34963},{"buffer":0,"byteOffset":75936,"byteLength":840,"target":34962},{"buffer":0,"byteOffset":76776,"byteLength":840,"target":34962},{"buffer":0,"byteOffset":77616,"byteLength":560,"target":34962},{"buffer":0,"byteOffset":78176,"byteLength":768,"target":34963},{"buffer":0,"byteOffset":78944,"byteLength":840,"target":34962},{"buffer":0,"byteOffset":79784,"byteLength":840,"target":34962},{"buffer":0,"byteOffset":80624,"byteLength":560,"target":34962},{"buffer":0,"byteOffset":81184,"byteLength":768,"target":34963},{"buffer":0,"byteOffset":81952,"byteLength":840,"target":34962},{"buffer":0,"byteOffset":82792,"byteLength":840,"target":34962},{"buffer":0,"byteOffset":83632,"byteLength":560,"target":34962},{"buffer":0,"byteOffset":84192,"byteLength":768,"target":34963},{"buffer":0,"byteOffset":84960,"byteLength":840,"target":34962},{"buffer":0,"byteOffset":85800,"byteLength":840,"target":34962},{"buffer":0,"byteOffset":86640,"byteLength":560,"target":34962},{"buffer":0,"byteOffset":87200,"byteLength":768,"target":34963},{"buffer":0,"byteOffset":87968,"byteLength":840,"target":34962},{"buffer":0,"byteOffset":88808,"byteLength":840,"target":34962},{"buffer":0,"byteOffset":89648,"byteLength":560,"target":34962},{"buffer":0,"byteOffset":90208,"byteLength":768,"target":34963},{"buffer":0,"byteOffset":90976,"byteLength":840,"target":34962},{"buffer":0,"byteOffset":91816,"byteLength":840,"target":34962},{"buffer":0,"byteOffset":92656,"byteLength":560,"target":34962},{"buffer":0,"byteOffset":93216,"byteLength":768,"target":34963},{"buffer":0,"byteOffset":93984,"byteLength":840,"target":34962},{"buffer":0,"byteOffset":94824,"byteLength":840,"target":34962},{"buffer":0,"byteOffset":95664,"byteLength":560,"target":34962},{"buffer":0,"byteOffset":96224,"byteLength":768,"target":34963},{"buffer":0,"byteOffset":96992,"byteLength":840,"target":34962},{"buffer":0,"byteOffset":97832,"byteLength":840,"target":34962},{"buffer":0,"byteOffset":98672,"byteLength":560,"target":34962},{"buffer":0,"byteOffset":99232,"byteLength":768,"target":34963},{"buffer":0,"byteOffset":100000,"byteLength":840,"target":34962},{"buffer":0,"byteOffset":100840,"byteLength":840,"target":34962},{"buffer":0,"byteOffset":101680,"byteLength":560,"target":34962},{"buffer":0,"byteOffset":102240,"byteLength":768,"target":34963},{"buffer":0,"byteOffset":103008,"byteLength":624,"target":34962},{"buffer":0,"byteOffset":103632,"byteLength":624,"target":34962},{"buffer":0,"byteOffset":104256,"byteLength":416,"target":34962},{"buffer":0,"byteOffset":104672,"byteLength":576,"target":34963}],"buffers":[{"uri":"model-axial-revolve-03.bin","byteLength":105248}]}