<svg xmlns="http://www.w3.org/2000/svg" viewBox="0 0 1466 1134" width="124.064mm" height="96mm" role="img" aria-label="承和堂中医门诊名片拼版 · 竖版台账正反两面"><title>承和堂中医门诊名片拼版 · 竖版台账正反两面</title><desc>正反两面并排的拼版张:左为正面、右为反面。中性灰垫底,好让两张卡的裁切边界看得见;两面之间留 48px 装订间隙并置一枚套准标记,裁切时一并去除。单面尺寸与两份单面文件逐字相同。</desc><metadata>OceanLeo 第一方原创名片版面 [CC0] | 行标记图标 5 枚:SVGRepo 公共领域图标库(platform_assets · category=icon · CC0) [CC0] | OceanLeo 程序化生成 [OCEANLEO-AIGEN]</metadata><style>.p-vec-neutral{fill:#8C959F}.s-vec-neutral{stroke:#8C959F;stroke-width:2;stroke-linecap:round;stroke-linejoin:round}.p-vec-ink{fill:#1F2328}.s-vec-ink{stroke:#1F2328;stroke-width:2;stroke-linecap:round;stroke-linejoin:round}.p-vec-white{fill:#FFFFFF}.s-vec-white{stroke:#FFFFFF;stroke-width:2;stroke-linecap:round;stroke-linejoin:round}</style><g role="img"><title>拼版张的版底与装订间隙</title><rect id="sheetground" class="p-vec-neutral" x="0" y="0" width="1466" height="1134" rx="0" ry="0"/></g><g role="img"><title>装订间隙中的套准标记，裁切时去除</title><circle id="regmark" class="p-vec-ink" cx="733" cy="567" r="12"/></g><svg x="0" y="0" width="709" height="1134" viewBox="0 0 709 1134" data-source-ref="facefront"><title>承和堂中医门诊名片正面 · 竖版横线台账</title><desc>60×96mm 含 3mm 出血的竖幅名片正面。一组横线把版面切成抬头 / 姓名职务 / 联络 / 地址与时间四条信息带，单栏，无彩，四级字号等比 1.3 递进，安全区内八成填满。</desc><metadata>OceanLeo 第一方原创名片版面 [CC0] | OceanLeo 程序化生成 [OCEANLEO-AIGEN]</metadata><style>.p-vec-surface{fill:#F5F7FA}.s-vec-surface{stroke:#F5F7FA;stroke-width:2;stroke-linecap:round;stroke-linejoin:round}.p-vec-ink{fill:#1F2328}.s-vec-ink{stroke:#1F2328;stroke-width:2;stroke-linecap:round;stroke-linejoin:round}.p-vec-neutral{fill:#8C959F}.s-vec-neutral{stroke:#8C959F;stroke-width:2;stroke-linecap:round;stroke-linejoin:round}</style><g role="img"><title>浅灰版底，铺到三毫米出血边缘</title><rect id="ground" class="p-vec-surface" x="0" y="0" width="709" height="1134" rx="0" ry="0"/></g><g role="img"><title>承和堂中医门诊</title><text id="org" class="p-vec-ink" x="95" y="162.32999999999998" font-size="40.56" font-family="sans-serif">承和堂中医门诊</text></g><g role="img"><title>CHENGHE TCM CLINIC</title><text id="orgsub" class="p-vec-ink" x="95" y="201.32999999999998" font-size="24" font-family="sans-serif">CHENGHE TCM CLINIC</text></g><g role="img"><title>抬头与姓名之间的分区线</title><rect id="ruleone" class="p-vec-neutral" x="95" y="224" width="519" height="4" rx="0.333" ry="0.333"/></g><g role="img"><title>欧阳既明</title><text id="name" class="p-vec-ink" x="95" y="323.23" font-size="52.73" font-family="sans-serif">欧阳既明</text></g><g role="img"><title>主任中医师 · 副教授</title><text id="title" class="p-vec-ink" x="95" y="379.33" font-size="31.2" font-family="sans-serif">主任中医师 · 副教授</text></g><g role="img"><title>针灸科 · 脾胃病科</title><text id="dept" class="p-vec-ink" x="95" y="421.33" font-size="24" font-family="sans-serif">针灸科 · 脾胃病科</text></g><g role="img"><title>姓名与联络之间的发丝线</title><rect id="ruletwo" class="p-vec-neutral" x="95" y="450" width="519" height="2" rx="0.167" ry="0.167"/></g><g role="img"><title>0571-8866 2130</title><text id="tel" class="p-vec-ink" x="95" y="515.33" font-size="31.2" font-family="sans-serif">0571-8866 2130</text></g><g role="img"><title>手机 138 5718 0426</title><text id="mobile" class="p-vec-ink" x="95" y="557.33" font-size="24" font-family="sans-serif">手机 138 5718 0426</text></g><g role="img"><title>ouyang@chenghe.clinic</title><text id="mail" class="p-vec-ink" x="95" y="597.33" font-size="24" font-family="sans-serif">ouyang@chenghe.clinic</text></g><g role="img"><title>联络与地址之间的发丝线</title><rect id="rulethree" class="p-vec-neutral" x="95" y="626" width="519" height="2" rx="0.167" ry="0.167"/></g><g role="img"><title>苏州市姑苏区平江路 88 号</title><text id="addr" class="p-vec-ink" x="95" y="681.33" font-size="24" font-family="sans-serif">苏州市姑苏区平江路 88 号</text></g><g role="img"><title>承和堂门诊二楼</title><text id="addrtwo" class="p-vec-ink" x="95" y="721.33" font-size="24" font-family="sans-serif">承和堂门诊二楼</text></g><g role="img"><title>坐诊 周一至周六 08:30–17:30</title><text id="hours" class="p-vec-ink" x="95" y="771.33" font-size="24" font-family="sans-serif">坐诊 周一至周六 08:30–17:30</text></g><g role="img"><title>周日 09:00–12:00</title><text id="hourstwo" class="p-vec-ink" x="95" y="811.33" font-size="24" font-family="sans-serif">周日 09:00–12:00</text></g><g role="img"><title>预约请提前一日致电 · 微信 chenghe_tcm</title><text id="book" class="p-vec-ink" x="95" y="861.33" font-size="24" font-family="sans-serif">预约请提前一日致电 · 微信 chenghe_tcm</text></g></svg><svg x="757" y="0" width="709" height="1134" viewBox="0 0 709 1134" data-source-ref="faceback"><title>承和堂中医门诊名片反面 · 业务清单</title><desc>竖幅名片反面，反面策略为业务清单：沿用正面的横线节奏，五行诊疗项目一行一项，行首一枚平台素材库的 CC0 图标作行标记，行下一条发丝线。</desc><metadata>OceanLeo 第一方原创名片版面 [CC0] | 行标记图标 5 枚:SVGRepo 公共领域图标库(platform_assets · category=icon · CC0) [CC0] | OceanLeo 程序化生成 [OCEANLEO-AIGEN]</metadata><style>.p-vec-surface{fill:#F5F7FA}.s-vec-surface{stroke:#F5F7FA;stroke-width:2;stroke-linecap:round;stroke-linejoin:round}.p-vec-ink{fill:#1F2328}.s-vec-ink{stroke:#1F2328;stroke-width:2;stroke-linecap:round;stroke-linejoin:round}.p-vec-neutral{fill:#8C959F}.s-vec-neutral{stroke:#8C959F;stroke-width:2;stroke-linecap:round;stroke-linejoin:round}</style><g role="img"><title>浅灰版底，与正面同一块底</title><rect id="ground" class="p-vec-surface" x="0" y="0" width="709" height="1134" rx="0" ry="0"/></g><g role="img"><title>诊疗项目</title><text id="listtitle" class="p-vec-ink" x="95" y="153.32999999999998" font-size="31.2" font-family="sans-serif">诊疗项目</text></g><g role="img"><title>清单抬头下的分区线</title><rect id="ruletop" class="p-vec-neutral" x="95" y="180" width="519" height="4" rx="0.333" ry="0.333"/></g><g role="img"><title>针灸理疗</title><text id="labelone" class="p-vec-ink" x="158" y="249.32999999999998" font-size="31.2" font-family="sans-serif">针灸理疗</text></g><g role="img"><title>颈肩腰腿痛、失眠、面瘫</title><text id="subone" class="p-vec-ink" x="158" y="289.33" font-size="24" font-family="sans-serif">颈肩腰腿痛、失眠、面瘫</text></g><g role="img"><title>针灸理疗行下的发丝线</title><rect id="hairone" class="p-vec-neutral" x="95" y="322" width="519" height="2" rx="0.167" ry="0.167"/></g><g role="img"><title>推拿正骨</title><text id="labeltwo" class="p-vec-ink" x="158" y="409.33" font-size="31.2" font-family="sans-serif">推拿正骨</text></g><g role="img"><title>手法复位、软组织松解</title><text id="subtwo" class="p-vec-ink" x="158" y="449.33" font-size="24" font-family="sans-serif">手法复位、软组织松解</text></g><g role="img"><title>推拿正骨行下的发丝线</title><rect id="hairtwo" class="p-vec-neutral" x="95" y="482" width="519" height="2" rx="0.167" ry="0.167"/></g><g role="img"><title>中药调理</title><text id="labelthree" class="p-vec-ink" x="158" y="569.33" font-size="31.2" font-family="sans-serif">中药调理</text></g><g role="img"><title>脾胃、月经、体质调理</title><text id="subthree" class="p-vec-ink" x="158" y="609.33" font-size="24" font-family="sans-serif">脾胃、月经、体质调理</text></g><g role="img"><title>中药调理行下的发丝线</title><rect id="hairthree" class="p-vec-neutral" x="95" y="642" width="519" height="2" rx="0.167" ry="0.167"/></g><g role="img"><title>儿科调护</title><text id="labelfour" class="p-vec-ink" x="158" y="729.33" font-size="31.2" font-family="sans-serif">儿科调护</text></g><g role="img"><title>小儿推拿、食积、反复感冒</title><text id="subfour" class="p-vec-ink" x="158" y="769.33" font-size="24" font-family="sans-serif">小儿推拿、食积、反复感冒</text></g><g role="img"><title>儿科调护行下的发丝线</title><rect id="hairfour" class="p-vec-neutral" x="95" y="802" width="519" height="2" rx="0.167" ry="0.167"/></g><g role="img"><title>预约坐诊</title><text id="labelfive" class="p-vec-ink" x="158" y="889.33" font-size="31.2" font-family="sans-serif">预约坐诊</text></g><g role="img"><title>周一至周六 08:30–17:30</title><text id="subfive" class="p-vec-ink" x="158" y="929.33" font-size="24" font-family="sans-serif">周一至周六 08:30–17:30</text></g><g role="img"><title>预约坐诊行下的发丝线</title><rect id="hairfive" class="p-vec-neutral" x="95" y="962" width="519" height="2" rx="0.167" ry="0.167"/></g><svg x="95" y="210" width="44" height="44" viewBox="0 0 24 24" data-source-ref="iconpulse"><path d="M22 12H18l-3 9L9 3 6 12H2" stroke="#000" stroke-width="2" stroke-linecap="round" stroke-linejoin="round"/></svg><svg x="95" y="370" width="44" height="44" viewBox="0 0 24 24" data-source-ref="iconhand"><path d="M6.9 11.4444v2.7778m0-2.7778V4.77778c0-.92048.76112-1.66667 1.7-1.66667.938880000000001.0 1.7.74619 1.7 1.66667M6.9 11.4444C6.9 10.524 6.13888 9.77778 5.2 9.77778S3.5 10.524 3.5 11.4444v2.2223C3.5 18.269 7.30558 22 12 22c4.6944.0 8.5-3.731 8.5-8.3333V8.11111C20.5 7.19064 19.7389 6.44444 18.8 6.44444s-1.7.7462-1.7 1.66667M10.3 4.77778V10.8889m0-6.11112V3.66667C10.3 2.74619 11.0611 2 12 2s1.7.74619 1.7 1.66667V4.77778m0 0V10.8889m0-6.11112C13.7 3.8573 14.4611 3.11111 15.4 3.11111 16.3389 3.11111 17.1 3.8573 17.1 4.77778V8.11111m0 0V10.8889" stroke="#000" stroke-width="2" stroke-linecap="round" stroke-linejoin="round"/></svg><svg x="95" y="530" width="44" height="44" viewBox="-77 79 100 100" data-source-ref="iconleaf"><g><path d="M-2.5 151.2C13 135.8 16.8 83.6 16.8 83.6s-10.7 6.8-27.5 8.2c-15.8 1.4-30.5 3.6-39.1 12.2-13.3 13.3-16.6 32.1-9 45.5 10.5-17.8 45-33.5 45-33.5-24.5 17.4-40.6 34-57.4 58l9.3 1.1s6.1-11.1 11.5-16.4C-37 168.1-16.6 165.3-2.5 151.2z"/></g></svg><svg x="95" y="690" width="44" height="44" viewBox="0 0 256 256" data-source-ref="iconbaby"><path id="XMLID_5_" d="M88.6 253.4H165c9.9.0 18-8.1 18-18V111.1c0-9.3-7.1-16.8-16.1-17.8v-26h-10.6c.2-1.3.4-6.6.4-7.9.0-8.8-6.8-13-13.4-18.7.0-.5.1-18.7.1-19.2.0-10.9-5.9-19.8-16.8-19.8-10.9.0-16.8 8.9-16.8 19.8.0.5.0 18.7.1 19.2-6.5 5.7-13.4 9.9-13.4 18.7.0 1.3.2 6.6.4 7.9h-10v26c-9.1.9-16.2 8.5-16.2 17.8v124.4C70.6 245.4 78.7 253.4 88.6 253.4zM155.2 79v13.9H98.6V79h56.6zM82.4 111.1c0-3.4 2.8-6.3 6.3-6.3H165c3.5.0 6.3 2.8 6.3 6.3v22.3h-29.1v11.7h29.1V162h-27.9v11.7h27.9v17.6h-29.1V203h29.1v32.4c0 3.5-2.8 6.3-6.3 6.3H88.6c-3.4.0-6.3-2.8-6.3-6.3V111.1z"/></svg><svg x="95" y="850" width="44" height="44" viewBox="0 0 12 12" data-source-ref="iconclock"><path d="M6 0C2.6862793.0.0 2.6862793.0 6s2.6862793 6 6 6 6-2.6862793 6-6S9.3137207.0 6 0zM8.5 6.5h-3v-4h1v3h2v1z" fill="#1D1D1B"/></svg></svg></svg>