{"asset":{"version":"2.0","generator":"oceanleo-asm-3d","extras":{"title":"共生菌群团簇 · 偏置密度中心的膜与核","description":"三十件椭球互相咬合成一团菌群：密度中心压在左前方，四件大膜在此重叠，各自包住一枚不外露的核；越向右后方构件越小越疏，散成一条不切齐的稀疏尾。全件没有一个平面、一条直线。 密度中心在左前方：四件大膜在此重叠并各含一核；构件尺寸自中心向外单调变小，外圈刻意留稀疏，不补齐。","attribution":[{"text":"OceanLeo 第一方原创形体研究","licenseCode":"CC0","licenseUrl":"https://creativecommons.org/publicdomain/zero/1.0/"},{"text":"OceanLeo 程序化生成","licenseCode":"OCEANLEO-AIGEN","licenseUrl":"https://oceanleo.com/licenses/aigen"}]}},"scene":0,"scenes":[{"name":"model-organic-cluster-02","nodes":[30]}],"nodes":[{"name":"membrane-1","mesh":0},{"name":"membrane-2","mesh":1},{"name":"membrane-3","mesh":2},{"name":"membrane-4","mesh":3},{"name":"core-1","mesh":4},{"name":"core-2","mesh":5},{"name":"core-3","mesh":6},{"name":"core-4","mesh":7},{"name":"mid-1","mesh":8},{"name":"mid-2","mesh":9},{"name":"mid-3","mesh":10},{"name":"mid-4","mesh":11},{"name":"mid-5","mesh":12},{"name":"mid-6","mesh":13},{"name":"mid-7","mesh":14},{"name":"mid-8","mesh":15},{"name":"mid-9","mesh":16},{"name":"edge-1","mesh":17},{"name":"edge-2","mesh":18},{"name":"edge-3","mesh":19},{"name":"edge-4","mesh":20},{"name":"edge-5","mesh":21},{"name":"edge-6","mesh":22},{"name":"edge-7","mesh":23},{"name":"edge-8","mesh":24},{"name":"edge-9","mesh":25},{"name":"edge-10","mesh":26},{"name":"edge-11","mesh":27},{"name":"edge-12","mesh":28},{"name":"edge-13","mesh":29},{"name":"model-organic-cluster-02","children":[0,1,2,3,4,5,6,7,8,9,10,11,12,13,14,15,16,17,18,19,20,21,22,23,24,25,26,27,28,29]}],"meshes":[{"name":"密度中心最大的一枚膜，扁鼓形","primitives":[{"attributes":{"POSITION":0,"NORMAL":1,"TEXCOORD_0":2},"indices":3,"material":0,"mode":4}]},{"name":"中心东北侧的立卵形膜，与第一枚深度咬合","primitives":[{"attributes":{"POSITION":4,"NORMAL":5,"TEXCOORD_0":6},"indices":7,"material":0,"mode":4}]},{"name":"中心西南侧的压扁膜","primitives":[{"attributes":{"POSITION":8,"NORMAL":9,"TEXCOORD_0":10},"indices":11,"material":0,"mode":4}]},{"name":"中心正南的高卵形膜","primitives":[{"attributes":{"POSITION":12,"NORMAL":13,"TEXCOORD_0":14},"indices":15,"material":0,"mode":4}]},{"name":"第一枚膜内的核，完全被包住","primitives":[{"attributes":{"POSITION":16,"NORMAL":17,"TEXCOORD_0":18},"indices":19,"material":1,"mode":4}]},{"name":"第二枚膜内的核，随膜立起","primitives":[{"attributes":{"POSITION":20,"NORMAL":21,"TEXCOORD_0":22},"indices":23,"material":1,"mode":4}]},{"name":"第三枚膜内的核，最小的一枚","primitives":[{"attributes":{"POSITION":24,"NORMAL":25,"TEXCOORD_0":26},"indices":27,"material":1,"mode":4}]},{"name":"第四枚膜内的核","primitives":[{"attributes":{"POSITION":28,"NORMAL":29,"TEXCOORD_0":30},"indices":31,"material":1,"mode":4}]},{"name":"西北肩部的中号膜","primitives":[{"attributes":{"POSITION":32,"NORMAL":33,"TEXCOORD_0":34},"indices":35,"material":0,"mode":4}]},{"name":"北肩的横鼓形中号膜","primitives":[{"attributes":{"POSITION":36,"NORMAL":37,"TEXCOORD_0":38},"indices":39,"material":0,"mode":4}]},{"name":"东北肩的立形中号膜","primitives":[{"attributes":{"POSITION":40,"NORMAL":41,"TEXCOORD_0":42},"indices":43,"material":0,"mode":4}]},{"name":"东侧扁中号膜","primitives":[{"attributes":{"POSITION":44,"NORMAL":45,"TEXCOORD_0":46},"indices":47,"material":0,"mode":4}]},{"name":"东南侧中号膜，与第二枚大膜相交","primitives":[{"attributes":{"POSITION":48,"NORMAL":49,"TEXCOORD_0":50},"indices":51,"material":0,"mode":4}]},{"name":"南侧横展中号膜","primitives":[{"attributes":{"POSITION":52,"NORMAL":53,"TEXCOORD_0":54},"indices":55,"material":0,"mode":4}]},{"name":"西南侧最高的中号膜","primitives":[{"attributes":{"POSITION":56,"NORMAL":57,"TEXCOORD_0":58},"indices":59,"material":0,"mode":4}]},{"name":"西侧中号膜","primitives":[{"attributes":{"POSITION":60,"NORMAL":61,"TEXCOORD_0":62},"indices":63,"material":0,"mode":4}]},{"name":"西缘压扁的中号膜","primitives":[{"attributes":{"POSITION":64,"NORMAL":65,"TEXCOORD_0":66},"indices":67,"material":0,"mode":4}]},{"name":"西北外缘小膜","primitives":[{"attributes":{"POSITION":68,"NORMAL":69,"TEXCOORD_0":70},"indices":71,"material":0,"mode":4}]},{"name":"北外缘扁小膜","primitives":[{"attributes":{"POSITION":72,"NORMAL":73,"TEXCOORD_0":74},"indices":75,"material":0,"mode":4}]},{"name":"正北外缘小膜","primitives":[{"attributes":{"POSITION":76,"NORMAL":77,"TEXCOORD_0":78},"indices":79,"material":0,"mode":4}]},{"name":"东北外缘扁小膜","primitives":[{"attributes":{"POSITION":80,"NORMAL":81,"TEXCOORD_0":82},"indices":83,"material":0,"mode":4}]},{"name":"东北远端小膜","primitives":[{"attributes":{"POSITION":84,"NORMAL":85,"TEXCOORD_0":86},"indices":87,"material":0,"mode":4}]},{"name":"东侧远端小膜","primitives":[{"attributes":{"POSITION":88,"NORMAL":89,"TEXCOORD_0":90},"indices":91,"material":0,"mode":4}]},{"name":"东南远端小膜","primitives":[{"attributes":{"POSITION":92,"NORMAL":93,"TEXCOORD_0":94},"indices":95,"material":0,"mode":4}]},{"name":"南侧远端扁小膜","primitives":[{"attributes":{"POSITION":96,"NORMAL":97,"TEXCOORD_0":98},"indices":99,"material":0,"mode":4}]},{"name":"正南最远的小膜","primitives":[{"attributes":{"POSITION":100,"NORMAL":101,"TEXCOORD_0":102},"indices":103,"material":0,"mode":4}]},{"name":"西南远端扁小膜","primitives":[{"attributes":{"POSITION":104,"NORMAL":105,"TEXCOORD_0":106},"indices":107,"material":0,"mode":4}]},{"name":"西南外缘小膜","primitives":[{"attributes":{"POSITION":108,"NORMAL":109,"TEXCOORD_0":110},"indices":111,"material":0,"mode":4}]},{"name":"东北最远的一枚，稀疏带的端点","primitives":[{"attributes":{"POSITION":112,"NORMAL":113,"TEXCOORD_0":114},"indices":115,"material":0,"mode":4}]},{"name":"东侧最远的一枚，稀疏带的端点","primitives":[{"attributes":{"POSITION":116,"NORMAL":117,"TEXCOORD_0":118},"indices":119,"material":0,"mode":4}]}],"materials":[{"name":"vec.accent.2","pbrMetallicRoughness":{"baseColorTexture":{"index":0,"texCoord":0},"baseColorFactor":[0.55201,0.17144,0.01681,1],"metallicFactor":0.2,"roughnessFactor":0.6},"doubleSided":false},{"name":"vec.white","pbrMetallicRoughness":{"baseColorTexture":{"index":1,"texCoord":0},"baseColorFactor":[1,1,1,1],"metallicFactor":0.2,"roughnessFactor":0.6},"doubleSided":false}],"textures":[{"source":0,"sampler":0},{"source":1,"sampler":0}],"images":[{"uri":"textures/vec.accent.2.png","mimeType":"image/png","name":"vec.accent.2"},{"uri":"textures/vec.white.png","mimeType":"image/png","name":"vec.white"}],"samplers":[{"magFilter":9729,"minFilter":9987,"wrapS":10497,"wrapT":10497}],"accessors":[{"bufferView":0,"componentType":5126,"count":325,"type":"VEC3","min":[-44,0,-28],"max":[-12,28,4]},{"bufferView":1,"componentType":5126,"count":325,"type":"VEC3","min":[-1,-1,-1],"max":[1,1,1]},{"bufferView":2,"componentType":5126,"count":325,"type":"VEC2"},{"bufferView":3,"componentType":5125,"count":1728,"type":"SCALAR"},{"bufferView":4,"componentType":5126,"count":325,"type":"VEC3","min":[-25,0,-33],"max":[1,32,-7]},{"bufferView":5,"componentType":5126,"count":325,"type":"VEC3","min":[-1,-1,-1],"max":[1,1,1]},{"bufferView":6,"componentType":5126,"count":325,"type":"VEC2"},{"bufferView":7,"componentType":5125,"count":1728,"type":"SCALAR"},{"bufferView":8,"componentType":5126,"count":325,"type":"VEC3","min":[-46.5,0,-8.5],"max":[-21.5,21,16.5]},{"bufferView":9,"componentType":5126,"count":325,"type":"VEC3","min":[-1,-1,-1],"max":[1,1,1]},{"bufferView":10,"componentType":5126,"count":325,"type":"VEC2"},{"bufferView":11,"componentType":5125,"count":1728,"type":"SCALAR"},{"bufferView":12,"componentType":5126,"count":325,"type":"VEC3","min":[-27,0,-9],"max":[-5,26,13]},{"bufferView":13,"componentType":5126,"count":325,"type":"VEC3","min":[-1,-1,-1],"max":[1,1,1]},{"bufferView":14,"componentType":5126,"count":325,"type":"VEC2"},{"bufferView":15,"componentType":5125,"count":1728,"type":"SCALAR"},{"bufferView":16,"componentType":5126,"count":325,"type":"VEC3","min":[-35.5,0,-19.5],"max":[-20.5,13,-4.5]},{"bufferView":17,"componentType":5126,"count":325,"type":"VEC3","min":[-1,-1,-1],"max":[1,1,1]},{"bufferView":18,"componentType":5126,"count":325,"type":"VEC2"},{"bufferView":19,"componentType":5125,"count":1728,"type":"SCALAR"},{"bufferView":20,"componentType":5126,"count":325,"type":"VEC3","min":[-18,0,-26],"max":[-6,15,-14]},{"bufferView":21,"componentType":5126,"count":325,"type":"VEC3","min":[-1,-1,-1],"max":[1,1,1]},{"bufferView":22,"componentType":5126,"count":325,"type":"VEC2"},{"bufferView":23,"componentType":5125,"count":1728,"type":"SCALAR"},{"bufferView":24,"componentType":5126,"count":325,"type":"VEC3","min":[-39.5,0,-1.5],"max":[-28.5,10,9.5]},{"bufferView":25,"componentType":5126,"count":325,"type":"VEC3","min":[-1,-1,-1],"max":[1,1,1]},{"bufferView":26,"componentType":5126,"count":325,"type":"VEC2"},{"bufferView":27,"componentType":5125,"count":1728,"type":"SCALAR"},{"bufferView":28,"componentType":5126,"count":325,"type":"VEC3","min":[-21,0,-3],"max":[-11,12,7]},{"bufferView":29,"componentType":5126,"count":325,"type":"VEC3","min":[-1,-1,-1],"max":[1,1,1]},{"bufferView":30,"componentType":5126,"count":325,"type":"VEC2"},{"bufferView":31,"componentType":5125,"count":1728,"type":"SCALAR"},{"bufferView":32,"componentType":5126,"count":325,"type":"VEC3","min":[-57.5,0,-35.5],"max":[-38.5,23,-16.5]},{"bufferView":33,"componentType":5126,"count":325,"type":"VEC3","min":[-1,-1,-1],"max":[1,1,1]},{"bufferView":34,"componentType":5126,"count":325,"type":"VEC2"},{"bufferView":35,"componentType":5125,"count":1728,"type":"SCALAR"},{"bufferView":36,"componentType":5126,"count":325,"type":"VEC3","min":[-40.5,0,-46.5],"max":[-19.5,17,-25.5]},{"bufferView":37,"componentType":5126,"count":325,"type":"VEC3","min":[-1,-1,-1],"max":[1,1,1]},{"bufferView":38,"componentType":5126,"count":325,"type":"VEC2"},{"bufferView":39,"componentType":5125,"count":1728,"type":"SCALAR"},{"bufferView":40,"componentType":5126,"count":325,"type":"VEC3","min":[-16.5,0,-46.5],"max":[0.5,21,-29.5]},{"bufferView":41,"componentType":5126,"count":325,"type":"VEC3","min":[-1,-1,-1],"max":[1,1,1]},{"bufferView":42,"componentType":5126,"count":325,"type":"VEC2"},{"bufferView":43,"componentType":5125,"count":1728,"type":"SCALAR"},{"bufferView":44,"componentType":5126,"count":325,"type":"VEC3","min":[-3,0,-33],"max":[15,15,-15]},{"bufferView":45,"componentType":5126,"count":325,"type":"VEC3","min":[-1,-1,-1],"max":[1,1,1]},{"bufferView":46,"componentType":5126,"count":325,"type":"VEC2"},{"bufferView":47,"componentType":5125,"count":1728,"type":"SCALAR"},{"bufferView":48,"componentType":5126,"count":325,"type":"VEC3","min":[-6,0,-14],"max":[10,20,2]},{"bufferView":49,"componentType":5126,"count":325,"type":"VEC3","min":[-1,-1,-1],"max":[1,1,1]},{"bufferView":50,"componentType":5126,"count":325,"type":"VEC2"},{"bufferView":51,"componentType":5125,"count":1728,"type":"SCALAR"},{"bufferView":52,"componentType":5126,"count":325,"type":"VEC3","min":[-18,0,6],"max":[2,16,26]},{"bufferView":53,"componentType":5126,"count":325,"type":"VEC3","min":[-1,-1,-1],"max":[1,1,1]},{"bufferView":54,"componentType":5126,"count":325,"type":"VEC2"},{"bufferView":55,"componentType":5125,"count":1728,"type":"SCALAR"},{"bufferView":56,"componentType":5126,"count":325,"type":"VEC3","min":[-37,0,13],"max":[-19,22,31]},{"bufferView":57,"componentType":5126,"count":325,"type":"VEC3","min":[-1,-1,-1],"max":[1,1,1]},{"bufferView":58,"componentType":5126,"count":325,"type":"VEC2"},{"bufferView":59,"componentType":5125,"count":1728,"type":"SCALAR"},{"bufferView":60,"componentType":5126,"count":325,"type":"VEC3","min":[-55.5,0,2.5],"max":[-40.5,18,17.5]},{"bufferView":61,"componentType":5126,"count":325,"type":"VEC3","min":[-1,-1,-1],"max":[1,1,1]},{"bufferView":62,"componentType":5126,"count":325,"type":"VEC2"},{"bufferView":63,"componentType":5125,"count":1728,"type":"SCALAR"},{"bufferView":64,"componentType":5126,"count":325,"type":"VEC3","min":[-60.5,0,-18.5],"max":[-43.5,14,-1.5]},{"bufferView":65,"componentType":5126,"count":325,"type":"VEC3","min":[-1,-1,-1],"max":[1,1,1]},{"bufferView":66,"componentType":5126,"count":325,"type":"VEC2"},{"bufferView":67,"componentType":5125,"count":1728,"type":"SCALAR"},{"bufferView":68,"componentType":5126,"count":325,"type":"VEC3","min":[-65,0,-35],"max":[-55,12,-25]},{"bufferView":69,"componentType":5126,"count":325,"type":"VEC3","min":[-1,-1,-1],"max":[1,1,1]},{"bufferView":70,"componentType":5126,"count":325,"type":"VEC2"},{"bufferView":71,"componentType":5125,"count":1728,"type":"SCALAR"},{"bufferView":72,"componentType":5126,"count":325,"type":"VEC3","min":[-50,0,-52],"max":[-38,9,-40]},{"bufferView":73,"componentType":5126,"count":325,"type":"VEC3","min":[-1,-1,-1],"max":[1,1,1]},{"bufferView":74,"componentType":5126,"count":325,"type":"VEC2"},{"bufferView":75,"componentType":5125,"count":1728,"type":"SCALAR"},{"bufferView":76,"componentType":5126,"count":325,"type":"VEC3","min":[-26.5,0,-56.5],"max":[-17.5,11,-47.5]},{"bufferView":77,"componentType":5126,"count":325,"type":"VEC3","min":[-1,-1,-1],"max":[1,1,1]},{"bufferView":78,"componentType":5126,"count":325,"type":"VEC2"},{"bufferView":79,"componentType":5125,"count":1728,"type":"SCALAR"},{"bufferView":80,"componentType":5126,"count":325,"type":"VEC3","min":[-5.5,0,-57.5],"max":[5.5,8,-46.5]},{"bufferView":81,"componentType":5126,"count":325,"type":"VEC3","min":[-1,-1,-1],"max":[1,1,1]},{"bufferView":82,"componentType":5126,"count":325,"type":"VEC2"},{"bufferView":83,"componentType":5125,"count":1728,"type":"SCALAR"},{"bufferView":84,"componentType":5126,"count":325,"type":"VEC3","min":[13,0,-45],"max":[23,13,-35]},{"bufferView":85,"componentType":5126,"count":325,"type":"VEC3","min":[-1,-1,-1],"max":[1,1,1]},{"bufferView":86,"componentType":5126,"count":325,"type":"VEC2"},{"bufferView":87,"componentType":5125,"count":1728,"type":"SCALAR"},{"bufferView":88,"componentType":5126,"count":325,"type":"VEC3","min":[18,0,-22],"max":[30,10,-10]},{"bufferView":89,"componentType":5126,"count":325,"type":"VEC3","min":[-1,-1,-1],"max":[1,1,1]},{"bufferView":90,"componentType":5126,"count":325,"type":"VEC2"},{"bufferView":91,"componentType":5125,"count":1728,"type":"SCALAR"},{"bufferView":92,"componentType":5126,"count":325,"type":"VEC3","min":[15.5,0,1.5],"max":[24.5,12,10.5]},{"bufferView":93,"componentType":5126,"count":325,"type":"VEC3","min":[-1,-1,-1],"max":[1,1,1]},{"bufferView":94,"componentType":5126,"count":325,"type":"VEC2"},{"bufferView":95,"componentType":5125,"count":1728,"type":"SCALAR"},{"bufferView":96,"componentType":5126,"count":325,"type":"VEC3","min":[4.5,0,20.5],"max":[15.5,9,31.5]},{"bufferView":97,"componentType":5126,"count":325,"type":"VEC3","min":[-1,-1,-1],"max":[1,1,1]},{"bufferView":98,"componentType":5126,"count":325,"type":"VEC2"},{"bufferView":99,"componentType":5125,"count":1728,"type":"SCALAR"},{"bufferView":100,"componentType":5126,"count":325,"type":"VEC3","min":[-17,0,29],"max":[-7,13,39]},{"bufferView":101,"componentType":5126,"count":325,"type":"VEC3","min":[-1,-1,-1],"max":[1,1,1]},{"bufferView":102,"componentType":5126,"count":325,"type":"VEC2"},{"bufferView":103,"componentType":5125,"count":1728,"type":"SCALAR"},{"bufferView":104,"componentType":5126,"count":325,"type":"VEC3","min":[-42,0,32],"max":[-30,9,44]},{"bufferView":105,"componentType":5126,"count":325,"type":"VEC3","min":[-1,-1,-1],"max":[1,1,1]},{"bufferView":106,"componentType":5126,"count":325,"type":"VEC2"},{"bufferView":107,"componentType":5125,"count":1728,"type":"SCALAR"},{"bufferView":108,"componentType":5126,"count":325,"type":"VEC3","min":[-62.5,0,21.5],"max":[-53.5,11,30.5]},{"bufferView":109,"componentType":5126,"count":325,"type":"VEC3","min":[-1,-1,-1],"max":[1,1,1]},{"bufferView":110,"componentType":5126,"count":325,"type":"VEC2"},{"bufferView":111,"componentType":5125,"count":1728,"type":"SCALAR"},{"bufferView":112,"componentType":5126,"count":325,"type":"VEC3","min":[32,0,-32],"max":[40,10,-24]},{"bufferView":113,"componentType":5126,"count":325,"type":"VEC3","min":[-1,-1,-1],"max":[1,1,1]},{"bufferView":114,"componentType":5126,"count":325,"type":"VEC2"},{"bufferView":115,"componentType":5125,"count":1728,"type":"SCALAR"},{"bufferView":116,"componentType":5126,"count":325,"type":"VEC3","min":[35.5,0,-6.5],"max":[44.5,8,2.5]},{"bufferView":117,"componentType":5126,"count":325,"type":"VEC3","min":[-1,-1,-1],"max":[1,1,1]},{"bufferView":118,"componentType":5126,"count":325,"type":"VEC2"},{"bufferView":119,"componentType":5125,"count":1728,"type":"SCALAR"}],"bufferViews":[{"buffer":0,"byteOffset":0,"byteLength":3900,"target":34962},{"buffer":0,"byteOffset":3900,"byteLength":3900,"target":34962},{"buffer":0,"byteOffset":7800,"byteLength":2600,"target":34962},{"buffer":0,"byteOffset":10400,"byteLength":6912,"target":34963},{"buffer":0,"byteOffset":17312,"byteLength":3900,"target":34962},{"buffer":0,"byteOffset":21212,"byteLength":3900,"target":34962},{"buffer":0,"byteOffset":25112,"byteLength":2600,"target":34962},{"buffer":0,"byteOffset":27712,"byteLength":6912,"target":34963},{"buffer":0,"byteOffset":34624,"byteLength":3900,"target":34962},{"buffer":0,"byteOffset":38524,"byteLength":3900,"target":34962},{"buffer":0,"byteOffset":42424,"byteLength":2600,"target":34962},{"buffer":0,"byteOffset":45024,"byteLength":6912,"target":34963},{"buffer":0,"byteOffset":51936,"byteLength":3900,"target":34962},{"buffer":0,"byteOffset":55836,"byteLength":3900,"target":34962},{"buffer":0,"byteOffset":59736,"byteLength":2600,"target":34962},{"buffer":0,"byteOffset":62336,"byteLength":6912,"target":34963},{"buffer":0,"byteOffset":69248,"byteLength":3900,"target":34962},{"buffer":0,"byteOffset":73148,"byteLength":3900,"target":34962},{"buffer":0,"byteOffset":77048,"byteLength":2600,"target":34962},{"buffer":0,"byteOffset":79648,"byteLength":6912,"target":34963},{"buffer":0,"byteOffset":86560,"byteLength":3900,"target":34962},{"buffer":0,"byteOffset":90460,"byteLength":3900,"target":34962},{"buffer":0,"byteOffset":94360,"byteLength":2600,"target":34962},{"buffer":0,"byteOffset":96960,"byteLength":6912,"target":34963},{"buffer":0,"byteOffset":103872,"byteLength":3900,"target":34962},{"buffer":0,"byteOffset":107772,"byteLength":3900,"target":34962},{"buffer":0,"byteOffset":111672,"byteLength":2600,"target":34962},{"buffer":0,"byteOffset":114272,"byteLength":6912,"target":34963},{"buffer":0,"byteOffset":121184,"byteLength":3900,"target":34962},{"buffer":0,"byteOffset":125084,"byteLength":3900,"target":34962},{"buffer":0,"byteOffset":128984,"byteLength":2600,"target":34962},{"buffer":0,"byteOffset":131584,"byteLength":6912,"target":34963},{"buffer":0,"byteOffset":138496,"byteLength":3900,"target":34962},{"buffer":0,"byteOffset":142396,"byteLength":3900,"target":34962},{"buffer":0,"byteOffset":146296,"byteLength":2600,"target":34962},{"buffer":0,"byteOffset":148896,"byteLength":6912,"target":34963},{"buffer":0,"byteOffset":155808,"byteLength":3900,"target":34962},{"buffer":0,"byteOffset":159708,"byteLength":3900,"target":34962},{"buffer":0,"byteOffset":163608,"byteLength":2600,"target":34962},{"buffer":0,"byteOffset":166208,"byteLength":6912,"target":34963},{"buffer":0,"byteOffset":173120,"byteLength":3900,"target":34962},{"buffer":0,"byteOffset":177020,"byteLength":3900,"target":34962},{"buffer":0,"byteOffset":180920,"byteLength":2600,"target":34962},{"buffer":0,"byteOffset":183520,"byteLength":6912,"target":34963},{"buffer":0,"byteOffset":190432,"byteLength":3900,"target":34962},{"buffer":0,"byteOffset":194332,"byteLength":3900,"target":34962},{"buffer":0,"byteOffset":198232,"byteLength":2600,"target":34962},{"buffer":0,"byteOffset":200832,"byteLength":6912,"target":34963},{"buffer":0,"byteOffset":207744,"byteLength":3900,"target":34962},{"buffer":0,"byteOffset":211644,"byteLength":3900,"target":34962},{"buffer":0,"byteOffset":215544,"byteLength":2600,"target":34962},{"buffer":0,"byteOffset":218144,"byteLength":6912,"target":34963},{"buffer":0,"byteOffset":225056,"byteLength":3900,"target":34962},{"buffer":0,"byteOffset":228956,"byteLength":3900,"target":34962},{"buffer":0,"byteOffset":232856,"byteLength":2600,"target":34962},{"buffer":0,"byteOffset":235456,"byteLength":6912,"target":34963},{"buffer":0,"byteOffset":242368,"byteLength":3900,"target":34962},{"buffer":0,"byteOffset":246268,"byteLength":3900,"target":34962},{"buffer":0,"byteOffset":250168,"byteLength":2600,"target":34962},{"buffer":0,"byteOffset":252768,"byteLength":6912,"target":34963},{"buffer":0,"byteOffset":259680,"byteLength":3900,"target":34962},{"buffer":0,"byteOffset":263580,"byteLength":3900,"target":34962},{"buffer":0,"byteOffset":267480,"byteLength":2600,"target":34962},{"buffer":0,"byteOffset":270080,"byteLength":6912,"target":34963},{"buffer":0,"byteOffset":276992,"byteLength":3900,"target":34962},{"buffer":0,"byteOffset":280892,"byteLength":3900,"target":34962},{"buffer":0,"byteOffset":284792,"byteLength":2600,"target":34962},{"buffer":0,"byteOffset":287392,"byteLength":6912,"target":34963},{"buffer":0,"byteOffset":294304,"byteLength":3900,"target":34962},{"buffer":0,"byteOffset":298204,"byteLength":3900,"target":34962},{"buffer":0,"byteOffset":302104,"byteLength":2600,"target":34962},{"buffer":0,"byteOffset":304704,"byteLength":6912,"target":34963},{"buffer":0,"byteOffset":311616,"byteLength":3900,"target":34962},{"buffer":0,"byteOffset":315516,"byteLength":3900,"target":34962},{"buffer":0,"byteOffset":319416,"byteLength":2600,"target":34962},{"buffer":0,"byteOffset":322016,"byteLength":6912,"target":34963},{"buffer":0,"byteOffset":328928,"byteLength":3900,"target":34962},{"buffer":0,"byteOffset":332828,"byteLength":3900,"target":34962},{"buffer":0,"byteOffset":336728,"byteLength":2600,"target":34962},{"buffer":0,"byteOffset":339328,"byteLength":6912,"target":34963},{"buffer":0,"byteOffset":346240,"byteLength":3900,"target":34962},{"buffer":0,"byteOffset":350140,"byteLength":3900,"target":34962},{"buffer":0,"byteOffset":354040,"byteLength":2600,"target":34962},{"buffer":0,"byteOffset":356640,"byteLength":6912,"target":34963},{"buffer":0,"byteOffset":363552,"byteLength":3900,"target":34962},{"buffer":0,"byteOffset":367452,"byteLength":3900,"target":34962},{"buffer":0,"byteOffset":371352,"byteLength":2600,"target":34962},{"buffer":0,"byteOffset":373952,"byteLength":6912,"target":34963},{"buffer":0,"byteOffset":380864,"byteLength":3900,"target":34962},{"buffer":0,"byteOffset":384764,"byteLength":3900,"target":34962},{"buffer":0,"byteOffset":388664,"byteLength":2600,"target":34962},{"buffer":0,"byteOffset":391264,"byteLength":6912,"target":34963},{"buffer":0,"byteOffset":398176,"byteLength":3900,"target":34962},{"buffer":0,"byteOffset":402076,"byteLength":3900,"target":34962},{"buffer":0,"byteOffset":405976,"byteLength":2600,"target":34962},{"buffer":0,"byteOffset":408576,"byteLength":6912,"target":34963},{"buffer":0,"byteOffset":415488,"byteLength":3900,"target":34962},{"buffer":0,"byteOffset":419388,"byteLength":3900,"target":34962},{"buffer":0,"byteOffset":423288,"byteLength":2600,"target":34962},{"buffer":0,"byteOffset":425888,"byteLength":6912,"target":34963},{"buffer":0,"byteOffset":432800,"byteLength":3900,"target":34962},{"buffer":0,"byteOffset":436700,"byteLength":3900,"target":34962},{"buffer":0,"byteOffset":440600,"byteLength":2600,"target":34962},{"buffer":0,"byteOffset":443200,"byteLength":6912,"target":34963},{"buffer":0,"byteOffset":450112,"byteLength":3900,"target":34962},{"buffer":0,"byteOffset":454012,"byteLength":3900,"target":34962},{"buffer":0,"byteOffset":457912,"byteLength":2600,"target":34962},{"buffer":0,"byteOffset":460512,"byteLength":6912,"target":34963},{"buffer":0,"byteOffset":467424,"byteLength":3900,"target":34962},{"buffer":0,"byteOffset":471324,"byteLength":3900,"target":34962},{"buffer":0,"byteOffset":475224,"byteLength":2600,"target":34962},{"buffer":0,"byteOffset":477824,"byteLength":6912,"target":34963},{"buffer":0,"byteOffset":484736,"byteLength":3900,"target":34962},{"buffer":0,"byteOffset":488636,"byteLength":3900,"target":34962},{"buffer":0,"byteOffset":492536,"byteLength":2600,"target":34962},{"buffer":0,"byteOffset":495136,"byteLength":6912,"target":34963},{"buffer":0,"byteOffset":502048,"byteLength":3900,"target":34962},{"buffer":0,"byteOffset":505948,"byteLength":3900,"target":34962},{"buffer":0,"byteOffset":509848,"byteLength":2600,"target":34962},{"buffer":0,"byteOffset":512448,"byteLength":6912,"target":34963}],"buffers":[{"uri":"model-organic-cluster-02.bin","byteLength":519360}]}