{"asset":{"version":"2.0","generator":"oceanleo-asm-3d","extras":{"title":"滨海科研园区体量研究 · 棱柱阵列","description":"二十五栋直棱体量落在一块基面上的五列五排网格阵列，高中低三档高度分布，其中高段仅三栋；只交代体量与间距，不含任何立面细节。 高段体量集中在场地中列与东列，低段沿南北两侧边界铺开。","attribution":[{"text":"OceanLeo 第一方原创体量研究","licenseCode":"CC0","licenseUrl":"https://creativecommons.org/publicdomain/zero/1.0/"},{"text":"OceanLeo 程序化生成","licenseCode":"OCEANLEO-AIGEN","licenseUrl":"https://oceanleo.com/licenses/aigen"}]}},"scene":0,"scenes":[{"name":"model-prismatic-massing-01","nodes":[26]}],"nodes":[{"name":"site-base","mesh":0},{"name":"block-a1","mesh":1},{"name":"block-a2","mesh":2},{"name":"block-a3","mesh":3},{"name":"block-a4","mesh":4},{"name":"block-a5","mesh":5},{"name":"block-b1","mesh":6},{"name":"block-b2","mesh":7},{"name":"block-b3","mesh":8},{"name":"block-b4","mesh":9},{"name":"block-b5","mesh":10},{"name":"block-c1","mesh":11},{"name":"block-c2","mesh":12},{"name":"block-c3","mesh":13},{"name":"block-c4","mesh":14},{"name":"block-c5","mesh":15},{"name":"block-d1","mesh":16},{"name":"block-d2","mesh":17},{"name":"block-d3","mesh":18},{"name":"block-d4","mesh":19},{"name":"block-d5","mesh":20},{"name":"block-e1","mesh":21},{"name":"block-e2","mesh":22},{"name":"block-e3","mesh":23},{"name":"block-e4","mesh":24},{"name":"block-e5","mesh":25},{"name":"model-prismatic-massing-01","children":[0,1,2,3,4,5,6,7,8,9,10,11,12,13,14,15,16,17,18,19,20,21,22,23,24,25]}],"meshes":[{"name":"场地基面","primitives":[{"attributes":{"POSITION":0,"NORMAL":1,"TEXCOORD_0":2},"indices":3,"material":0,"mode":4}]},{"name":"A1 低段体量","primitives":[{"attributes":{"POSITION":4,"NORMAL":5,"TEXCOORD_0":6},"indices":7,"material":1,"mode":4}]},{"name":"A2 中段体量","primitives":[{"attributes":{"POSITION":8,"NORMAL":9,"TEXCOORD_0":10},"indices":11,"material":1,"mode":4}]},{"name":"A3 高段体量，标记件","primitives":[{"attributes":{"POSITION":12,"NORMAL":13,"TEXCOORD_0":14},"indices":15,"material":2,"mode":4}]},{"name":"A4 中段体量","primitives":[{"attributes":{"POSITION":16,"NORMAL":17,"TEXCOORD_0":18},"indices":19,"material":1,"mode":4}]},{"name":"A5 低段体量","primitives":[{"attributes":{"POSITION":20,"NORMAL":21,"TEXCOORD_0":22},"indices":23,"material":1,"mode":4}]},{"name":"B1 中段体量","primitives":[{"attributes":{"POSITION":24,"NORMAL":25,"TEXCOORD_0":26},"indices":27,"material":1,"mode":4}]},{"name":"B2 高段体量，标记件","primitives":[{"attributes":{"POSITION":28,"NORMAL":29,"TEXCOORD_0":30},"indices":31,"material":2,"mode":4}]},{"name":"B3 中段体量","primitives":[{"attributes":{"POSITION":32,"NORMAL":33,"TEXCOORD_0":34},"indices":35,"material":1,"mode":4}]},{"name":"B4 低段体量","primitives":[{"attributes":{"POSITION":36,"NORMAL":37,"TEXCOORD_0":38},"indices":39,"material":1,"mode":4}]},{"name":"B5 中段体量","primitives":[{"attributes":{"POSITION":40,"NORMAL":41,"TEXCOORD_0":42},"indices":43,"material":1,"mode":4}]},{"name":"C1 低段体量","primitives":[{"attributes":{"POSITION":44,"NORMAL":45,"TEXCOORD_0":46},"indices":47,"material":1,"mode":4}]},{"name":"C2 中段体量","primitives":[{"attributes":{"POSITION":48,"NORMAL":49,"TEXCOORD_0":50},"indices":51,"material":1,"mode":4}]},{"name":"C3 中段体量","primitives":[{"attributes":{"POSITION":52,"NORMAL":53,"TEXCOORD_0":54},"indices":55,"material":1,"mode":4}]},{"name":"C4 高段体量，标记件","primitives":[{"attributes":{"POSITION":56,"NORMAL":57,"TEXCOORD_0":58},"indices":59,"material":2,"mode":4}]},{"name":"C5 低段体量","primitives":[{"attributes":{"POSITION":60,"NORMAL":61,"TEXCOORD_0":62},"indices":63,"material":1,"mode":4}]},{"name":"D1 中段体量","primitives":[{"attributes":{"POSITION":64,"NORMAL":65,"TEXCOORD_0":66},"indices":67,"material":1,"mode":4}]},{"name":"D2 低段体量","primitives":[{"attributes":{"POSITION":68,"NORMAL":69,"TEXCOORD_0":70},"indices":71,"material":1,"mode":4}]},{"name":"D3 中段体量","primitives":[{"attributes":{"POSITION":72,"NORMAL":73,"TEXCOORD_0":74},"indices":75,"material":1,"mode":4}]},{"name":"D4 低段体量","primitives":[{"attributes":{"POSITION":76,"NORMAL":77,"TEXCOORD_0":78},"indices":79,"material":1,"mode":4}]},{"name":"D5 中段体量","primitives":[{"attributes":{"POSITION":80,"NORMAL":81,"TEXCOORD_0":82},"indices":83,"material":1,"mode":4}]},{"name":"E1 低段体量，北侧边界排","primitives":[{"attributes":{"POSITION":84,"NORMAL":85,"TEXCOORD_0":86},"indices":87,"material":1,"mode":4}]},{"name":"E2 中段体量，北侧边界排","primitives":[{"attributes":{"POSITION":88,"NORMAL":89,"TEXCOORD_0":90},"indices":91,"material":1,"mode":4}]},{"name":"E3 低段体量，北侧边界排","primitives":[{"attributes":{"POSITION":92,"NORMAL":93,"TEXCOORD_0":94},"indices":95,"material":1,"mode":4}]},{"name":"E4 中段体量，北侧边界排","primitives":[{"attributes":{"POSITION":96,"NORMAL":97,"TEXCOORD_0":98},"indices":99,"material":1,"mode":4}]},{"name":"E5 低段体量，北侧边界排","primitives":[{"attributes":{"POSITION":100,"NORMAL":101,"TEXCOORD_0":102},"indices":103,"material":1,"mode":4}]}],"materials":[{"name":"vec.surface","pbrMetallicRoughness":{"baseColorTexture":{"index":0,"texCoord":0},"baseColorFactor":[0.9131,0.93011,0.95597,1],"metallicFactor":0,"roughnessFactor":1},"doubleSided":false},{"name":"vec.neutral","pbrMetallicRoughness":{"baseColorTexture":{"index":1,"texCoord":0},"baseColorFactor":[0.26225,0.30054,0.3467,1],"metallicFactor":0,"roughnessFactor":1},"doubleSided":false},{"name":"vec.ink","pbrMetallicRoughness":{"baseColorTexture":{"index":2,"texCoord":0},"baseColorFactor":[0.0137,0.01681,0.02122,1],"metallicFactor":0,"roughnessFactor":1},"doubleSided":false}],"textures":[{"source":0,"sampler":0},{"source":1,"sampler":0},{"source":2,"sampler":0}],"images":[{"uri":"textures/vec.surface.png","mimeType":"image/png","name":"vec.surface"},{"uri":"textures/vec.neutral.png","mimeType":"image/png","name":"vec.neutral"},{"uri":"textures/vec.ink.png","mimeType":"image/png","name":"vec.ink"}],"samplers":[{"magFilter":9729,"minFilter":9987,"wrapS":10497,"wrapT":10497}],"accessors":[{"bufferView":0,"componentType":5126,"count":9,"type":"VEC3","min":[-55,0.3,-55],"max":[55,0.3,55]},{"bufferView":1,"componentType":5126,"count":9,"type":"VEC3","min":[0,1,0],"max":[0,1,0]},{"bufferView":2,"componentType":5126,"count":9,"type":"VEC2"},{"bufferView":3,"componentType":5125,"count":24,"type":"SCALAR"},{"bufferView":4,"componentType":5126,"count":54,"type":"VEC3","min":[-46,0,-36],"max":[-34,8,-24]},{"bufferView":5,"componentType":5126,"count":54,"type":"VEC3","min":[-1,-1,-1],"max":[1,1,1]},{"bufferView":6,"componentType":5126,"count":54,"type":"VEC2"},{"bufferView":7,"componentType":5125,"count":144,"type":"SCALAR"},{"bufferView":8,"componentType":5126,"count":54,"type":"VEC3","min":[-27,0,-37],"max":[-13,16,-23]},{"bufferView":9,"componentType":5126,"count":54,"type":"VEC3","min":[-1,-1,-1],"max":[1,1,1]},{"bufferView":10,"componentType":5126,"count":54,"type":"VEC2"},{"bufferView":11,"componentType":5125,"count":144,"type":"SCALAR"},{"bufferView":12,"componentType":5126,"count":54,"type":"VEC3","min":[-6,0,-36],"max":[6,34,-24]},{"bufferView":13,"componentType":5126,"count":54,"type":"VEC3","min":[-1,-1,-1],"max":[1,1,1]},{"bufferView":14,"componentType":5126,"count":54,"type":"VEC2"},{"bufferView":15,"componentType":5125,"count":144,"type":"SCALAR"},{"bufferView":16,"componentType":5126,"count":54,"type":"VEC3","min":[13.5,0,-36.5],"max":[26.5,15,-23.5]},{"bufferView":17,"componentType":5126,"count":54,"type":"VEC3","min":[-1,-1,-1],"max":[1,1,1]},{"bufferView":18,"componentType":5126,"count":54,"type":"VEC2"},{"bufferView":19,"componentType":5125,"count":144,"type":"SCALAR"},{"bufferView":20,"componentType":5126,"count":54,"type":"VEC3","min":[34.5,0,-35.5],"max":[45.5,7,-24.5]},{"bufferView":21,"componentType":5126,"count":54,"type":"VEC3","min":[-1,-1,-1],"max":[1,1,1]},{"bufferView":22,"componentType":5126,"count":54,"type":"VEC2"},{"bufferView":23,"componentType":5125,"count":144,"type":"SCALAR"},{"bufferView":24,"componentType":5126,"count":54,"type":"VEC3","min":[-46.5,0,-16.5],"max":[-33.5,18,-3.5]},{"bufferView":25,"componentType":5126,"count":54,"type":"VEC3","min":[-1,-1,-1],"max":[1,1,1]},{"bufferView":26,"componentType":5126,"count":54,"type":"VEC2"},{"bufferView":27,"componentType":5125,"count":144,"type":"SCALAR"},{"bufferView":28,"componentType":5126,"count":54,"type":"VEC3","min":[-26,0,-16],"max":[-14,30,-4]},{"bufferView":29,"componentType":5126,"count":54,"type":"VEC3","min":[-1,-1,-1],"max":[1,1,1]},{"bufferView":30,"componentType":5126,"count":54,"type":"VEC2"},{"bufferView":31,"componentType":5125,"count":144,"type":"SCALAR"},{"bufferView":32,"componentType":5126,"count":54,"type":"VEC3","min":[-7.5,0,-17.5],"max":[7.5,20,-2.5]},{"bufferView":33,"componentType":5126,"count":54,"type":"VEC3","min":[-1,-1,-1],"max":[1,1,1]},{"bufferView":34,"componentType":5126,"count":54,"type":"VEC2"},{"bufferView":35,"componentType":5125,"count":144,"type":"SCALAR"},{"bufferView":36,"componentType":5126,"count":54,"type":"VEC3","min":[14,0,-16],"max":[26,9,-4]},{"bufferView":37,"componentType":5126,"count":54,"type":"VEC3","min":[-1,-1,-1],"max":[1,1,1]},{"bufferView":38,"componentType":5126,"count":54,"type":"VEC2"},{"bufferView":39,"componentType":5125,"count":144,"type":"SCALAR"},{"bufferView":40,"componentType":5126,"count":54,"type":"VEC3","min":[33,0,-17],"max":[47,16,-3]},{"bufferView":41,"componentType":5126,"count":54,"type":"VEC3","min":[-1,-1,-1],"max":[1,1,1]},{"bufferView":42,"componentType":5126,"count":54,"type":"VEC2"},{"bufferView":43,"componentType":5125,"count":144,"type":"SCALAR"},{"bufferView":44,"componentType":5126,"count":54,"type":"VEC3","min":[-45.5,0,4.5],"max":[-34.5,7,15.5]},{"bufferView":45,"componentType":5126,"count":54,"type":"VEC3","min":[-1,-1,-1],"max":[1,1,1]},{"bufferView":46,"componentType":5126,"count":54,"type":"VEC2"},{"bufferView":47,"componentType":5125,"count":144,"type":"SCALAR"},{"bufferView":48,"componentType":5126,"count":54,"type":"VEC3","min":[-26.5,0,3.5],"max":[-13.5,17,16.5]},{"bufferView":49,"componentType":5126,"count":54,"type":"VEC3","min":[-1,-1,-1],"max":[1,1,1]},{"bufferView":50,"componentType":5126,"count":54,"type":"VEC2"},{"bufferView":51,"componentType":5125,"count":144,"type":"SCALAR"},{"bufferView":52,"componentType":5126,"count":54,"type":"VEC3","min":[-6,0,4],"max":[6,15,16]},{"bufferView":53,"componentType":5126,"count":54,"type":"VEC3","min":[-1,-1,-1],"max":[1,1,1]},{"bufferView":54,"componentType":5126,"count":54,"type":"VEC2"},{"bufferView":55,"componentType":5125,"count":144,"type":"SCALAR"},{"bufferView":56,"componentType":5126,"count":54,"type":"VEC3","min":[14.5,0,4.5],"max":[25.5,36,15.5]},{"bufferView":57,"componentType":5126,"count":54,"type":"VEC3","min":[-1,-1,-1],"max":[1,1,1]},{"bufferView":58,"componentType":5126,"count":54,"type":"VEC2"},{"bufferView":59,"componentType":5125,"count":144,"type":"SCALAR"},{"bufferView":60,"componentType":5126,"count":54,"type":"VEC3","min":[34,0,4],"max":[46,8,16]},{"bufferView":61,"componentType":5126,"count":54,"type":"VEC3","min":[-1,-1,-1],"max":[1,1,1]},{"bufferView":62,"componentType":5126,"count":54,"type":"VEC2"},{"bufferView":63,"componentType":5125,"count":144,"type":"SCALAR"},{"bufferView":64,"componentType":5126,"count":54,"type":"VEC3","min":[-46,0,24],"max":[-34,14,36]},{"bufferView":65,"componentType":5126,"count":54,"type":"VEC3","min":[-1,-1,-1],"max":[1,1,1]},{"bufferView":66,"componentType":5126,"count":54,"type":"VEC2"},{"bufferView":67,"componentType":5125,"count":144,"type":"SCALAR"},{"bufferView":68,"componentType":5126,"count":54,"type":"VEC3","min":[-25.5,0,24.5],"max":[-14.5,8,35.5]},{"bufferView":69,"componentType":5126,"count":54,"type":"VEC3","min":[-1,-1,-1],"max":[1,1,1]},{"bufferView":70,"componentType":5126,"count":54,"type":"VEC2"},{"bufferView":71,"componentType":5125,"count":144,"type":"SCALAR"},{"bufferView":72,"componentType":5126,"count":54,"type":"VEC3","min":[-7,0,23],"max":[7,19,37]},{"bufferView":73,"componentType":5126,"count":54,"type":"VEC3","min":[-1,-1,-1],"max":[1,1,1]},{"bufferView":74,"componentType":5126,"count":54,"type":"VEC2"},{"bufferView":75,"componentType":5125,"count":144,"type":"SCALAR"},{"bufferView":76,"componentType":5126,"count":54,"type":"VEC3","min":[15,0,25],"max":[25,6,35]},{"bufferView":77,"componentType":5126,"count":54,"type":"VEC3","min":[-1,-1,-1],"max":[1,1,1]},{"bufferView":78,"componentType":5126,"count":54,"type":"VEC2"},{"bufferView":79,"componentType":5125,"count":144,"type":"SCALAR"},{"bufferView":80,"componentType":5126,"count":54,"type":"VEC3","min":[33.5,0,23.5],"max":[46.5,17,36.5]},{"bufferView":81,"componentType":5126,"count":54,"type":"VEC3","min":[-1,-1,-1],"max":[1,1,1]},{"bufferView":82,"componentType":5126,"count":54,"type":"VEC2"},{"bufferView":83,"componentType":5125,"count":144,"type":"SCALAR"},{"bufferView":84,"componentType":5126,"count":54,"type":"VEC3","min":[-45,0,-53],"max":[-35,9,-43]},{"bufferView":85,"componentType":5126,"count":54,"type":"VEC3","min":[-1,-1,-1],"max":[1,1,1]},{"bufferView":86,"componentType":5126,"count":54,"type":"VEC2"},{"bufferView":87,"componentType":5125,"count":144,"type":"SCALAR"},{"bufferView":88,"componentType":5126,"count":54,"type":"VEC3","min":[-25.5,0,-53.5],"max":[-14.5,13,-42.5]},{"bufferView":89,"componentType":5126,"count":54,"type":"VEC3","min":[-1,-1,-1],"max":[1,1,1]},{"bufferView":90,"componentType":5126,"count":54,"type":"VEC2"},{"bufferView":91,"componentType":5125,"count":144,"type":"SCALAR"},{"bufferView":92,"componentType":5126,"count":54,"type":"VEC3","min":[-4.5,0,-52.5],"max":[4.5,7,-43.5]},{"bufferView":93,"componentType":5126,"count":54,"type":"VEC3","min":[-1,-1,-1],"max":[1,1,1]},{"bufferView":94,"componentType":5126,"count":54,"type":"VEC2"},{"bufferView":95,"componentType":5125,"count":144,"type":"SCALAR"},{"bufferView":96,"componentType":5126,"count":54,"type":"VEC3","min":[15,0,-53],"max":[25,12,-43]},{"bufferView":97,"componentType":5126,"count":54,"type":"VEC3","min":[-1,-1,-1],"max":[1,1,1]},{"bufferView":98,"componentType":5126,"count":54,"type":"VEC2"},{"bufferView":99,"componentType":5125,"count":144,"type":"SCALAR"},{"bufferView":100,"componentType":5126,"count":54,"type":"VEC3","min":[34.5,0,-53.5],"max":[45.5,8,-42.5]},{"bufferView":101,"componentType":5126,"count":54,"type":"VEC3","min":[-1,-1,-1],"max":[1,1,1]},{"bufferView":102,"componentType":5126,"count":54,"type":"VEC2"},{"bufferView":103,"componentType":5125,"count":144,"type":"SCALAR"}],"bufferViews":[{"buffer":0,"byteOffset":0,"byteLength":108,"target":34962},{"buffer":0,"byteOffset":108,"byteLength":108,"target":34962},{"buffer":0,"byteOffset":216,"byteLength":72,"target":34962},{"buffer":0,"byteOffset":288,"byteLength":96,"target":34963},{"buffer":0,"byteOffset":384,"byteLength":648,"target":34962},{"buffer":0,"byteOffset":1032,"byteLength":648,"target":34962},{"buffer":0,"byteOffset":1680,"byteLength":432,"target":34962},{"buffer":0,"byteOffset":2112,"byteLength":576,"target":34963},{"buffer":0,"byteOffset":2688,"byteLength":648,"target":34962},{"buffer":0,"byteOffset":3336,"byteLength":648,"target":34962},{"buffer":0,"byteOffset":3984,"byteLength":432,"target":34962},{"buffer":0,"byteOffset":4416,"byteLength":576,"target":34963},{"buffer":0,"byteOffset":4992,"byteLength":648,"target":34962},{"buffer":0,"byteOffset":5640,"byteLength":648,"target":34962},{"buffer":0,"byteOffset":6288,"byteLength":432,"target":34962},{"buffer":0,"byteOffset":6720,"byteLength":576,"target":34963},{"buffer":0,"byteOffset":7296,"byteLength":648,"target":34962},{"buffer":0,"byteOffset":7944,"byteLength":648,"target":34962},{"buffer":0,"byteOffset":8592,"byteLength":432,"target":34962},{"buffer":0,"byteOffset":9024,"byteLength":576,"target":34963},{"buffer":0,"byteOffset":9600,"byteLength":648,"target":34962},{"buffer":0,"byteOffset":10248,"byteLength":648,"target":34962},{"buffer":0,"byteOffset":10896,"byteLength":432,"target":34962},{"buffer":0,"byteOffset":11328,"byteLength":576,"target":34963},{"buffer":0,"byteOffset":11904,"byteLength":648,"target":34962},{"buffer":0,"byteOffset":12552,"byteLength":648,"target":34962},{"buffer":0,"byteOffset":13200,"byteLength":432,"target":34962},{"buffer":0,"byteOffset":13632,"byteLength":576,"target":34963},{"buffer":0,"byteOffset":14208,"byteLength":648,"target":34962},{"buffer":0,"byteOffset":14856,"byteLength":648,"target":34962},{"buffer":0,"byteOffset":15504,"byteLength":432,"target":34962},{"buffer":0,"byteOffset":15936,"byteLength":576,"target":34963},{"buffer":0,"byteOffset":16512,"byteLength":648,"target":34962},{"buffer":0,"byteOffset":17160,"byteLength":648,"target":34962},{"buffer":0,"byteOffset":17808,"byteLength":432,"target":34962},{"buffer":0,"byteOffset":18240,"byteLength":576,"target":34963},{"buffer":0,"byteOffset":18816,"byteLength":648,"target":34962},{"buffer":0,"byteOffset":19464,"byteLength":648,"target":34962},{"buffer":0,"byteOffset":20112,"byteLength":432,"target":34962},{"buffer":0,"byteOffset":20544,"byteLength":576,"target":34963},{"buffer":0,"byteOffset":21120,"byteLength":648,"target":34962},{"buffer":0,"byteOffset":21768,"byteLength":648,"target":34962},{"buffer":0,"byteOffset":22416,"byteLength":432,"target":34962},{"buffer":0,"byteOffset":22848,"byteLength":576,"target":34963},{"buffer":0,"byteOffset":23424,"byteLength":648,"target":34962},{"buffer":0,"byteOffset":24072,"byteLength":648,"target":34962},{"buffer":0,"byteOffset":24720,"byteLength":432,"target":34962},{"buffer":0,"byteOffset":25152,"byteLength":576,"target":34963},{"buffer":0,"byteOffset":25728,"byteLength":648,"target":34962},{"buffer":0,"byteOffset":26376,"byteLength":648,"target":34962},{"buffer":0,"byteOffset":27024,"byteLength":432,"target":34962},{"buffer":0,"byteOffset":27456,"byteLength":576,"target":34963},{"buffer":0,"byteOffset":28032,"byteLength":648,"target":34962},{"buffer":0,"byteOffset":28680,"byteLength":648,"target":34962},{"buffer":0,"byteOffset":29328,"byteLength":432,"target":34962},{"buffer":0,"byteOffset":29760,"byteLength":576,"target":34963},{"buffer":0,"byteOffset":30336,"byteLength":648,"target":34962},{"buffer":0,"byteOffset":30984,"byteLength":648,"target":34962},{"buffer":0,"byteOffset":31632,"byteLength":432,"target":34962},{"buffer":0,"byteOffset":32064,"byteLength":576,"target":34963},{"buffer":0,"byteOffset":32640,"byteLength":648,"target":34962},{"buffer":0,"byteOffset":33288,"byteLength":648,"target":34962},{"buffer":0,"byteOffset":33936,"byteLength":432,"target":34962},{"buffer":0,"byteOffset":34368,"byteLength":576,"target":34963},{"buffer":0,"byteOffset":34944,"byteLength":648,"target":34962},{"buffer":0,"byteOffset":35592,"byteLength":648,"target":34962},{"buffer":0,"byteOffset":36240,"byteLength":432,"target":34962},{"buffer":0,"byteOffset":36672,"byteLength":576,"target":34963},{"buffer":0,"byteOffset":37248,"byteLength":648,"target":34962},{"buffer":0,"byteOffset":37896,"byteLength":648,"target":34962},{"buffer":0,"byteOffset":38544,"byteLength":432,"target":34962},{"buffer":0,"byteOffset":38976,"byteLength":576,"target":34963},{"buffer":0,"byteOffset":39552,"byteLength":648,"target":34962},{"buffer":0,"byteOffset":40200,"byteLength":648,"target":34962},{"buffer":0,"byteOffset":40848,"byteLength":432,"target":34962},{"buffer":0,"byteOffset":41280,"byteLength":576,"target":34963},{"buffer":0,"byteOffset":41856,"byteLength":648,"target":34962},{"buffer":0,"byteOffset":42504,"byteLength":648,"target":34962},{"buffer":0,"byteOffset":43152,"byteLength":432,"target":34962},{"buffer":0,"byteOffset":43584,"byteLength":576,"target":34963},{"buffer":0,"byteOffset":44160,"byteLength":648,"target":34962},{"buffer":0,"byteOffset":44808,"byteLength":648,"target":34962},{"buffer":0,"byteOffset":45456,"byteLength":432,"target":34962},{"buffer":0,"byteOffset":45888,"byteLength":576,"target":34963},{"buffer":0,"byteOffset":46464,"byteLength":648,"target":34962},{"buffer":0,"byteOffset":47112,"byteLength":648,"target":34962},{"buffer":0,"byteOffset":47760,"byteLength":432,"target":34962},{"buffer":0,"byteOffset":48192,"byteLength":576,"target":34963},{"buffer":0,"byteOffset":48768,"byteLength":648,"target":34962},{"buffer":0,"byteOffset":49416,"byteLength":648,"target":34962},{"buffer":0,"byteOffset":50064,"byteLength":432,"target":34962},{"buffer":0,"byteOffset":50496,"byteLength":576,"target":34963},{"buffer":0,"byteOffset":51072,"byteLength":648,"target":34962},{"buffer":0,"byteOffset":51720,"byteLength":648,"target":34962},{"buffer":0,"byteOffset":52368,"byteLength":432,"target":34962},{"buffer":0,"byteOffset":52800,"byteLength":576,"target":34963},{"buffer":0,"byteOffset":53376,"byteLength":648,"target":34962},{"buffer":0,"byteOffset":54024,"byteLength":648,"target":34962},{"buffer":0,"byteOffset":54672,"byteLength":432,"target":34962},{"buffer":0,"byteOffset":55104,"byteLength":576,"target":34963},{"buffer":0,"byteOffset":55680,"byteLength":648,"target":34962},{"buffer":0,"byteOffset":56328,"byteLength":648,"target":34962},{"buffer":0,"byteOffset":56976,"byteLength":432,"target":34962},{"buffer":0,"byteOffset":57408,"byteLength":576,"target":34963}],"buffers":[{"uri":"model-prismatic-massing-01.bin","byteLength":57984}]}